<svg width="70" height="80" viewBox="0 0 70 80" fill="none" xmlns="http://www.w3.org/2000/svg">
<path d="M69.7708 79.9633L61.2625 72.4633L56.4667 68.005L51.3958 63.2966L53.4792 70.6258H8.61253C4.11928 70.6096 0.488527 66.9566 0.500027 62.4633V8.9508C0.493111 4.46076 4.12253 0.812714 8.61253 0.796631H61.6583C66.1483 0.812714 69.7779 4.46076 69.7708 8.9508V79.9633ZM50.9167 44.58C49.16 46.9362 46.6304 48.6 43.7708 49.28C44.9458 50.78 46.3625 52.4758 46.375 52.4925C51.1546 52.5933 55.6804 50.3454 58.4875 46.4758C58.3437 38.4537 56.3954 30.5671 52.7875 23.4008C49.6108 20.9082 45.7442 19.4534 41.7125 19.2341H41.6667L41.1125 19.8675C44.7137 20.8348 48.0721 22.5466 50.9708 24.8925C47.2825 22.865 43.2354 21.5743 39.0542 21.0925C36.3967 20.7973 33.7137 20.8239 31.0625 21.1716C30.875 21.1753 30.6883 21.1948 30.5042 21.23H30.3875C27.2807 21.5877 24.2492 22.4313 21.4042 23.73C19.9792 24.3841 19.1042 24.8591 19.0667 24.8758C19.0292 24.8925 19.0667 24.8758 19.0667 24.8466C22.1412 22.4285 25.6882 20.6812 29.4792 19.7175L29.0625 19.2425H29.0375C25.0058 19.4623 21.1393 20.917 17.9625 23.4091C14.3413 30.5704 12.3924 38.4604 12.2625 46.4841C15.0348 50.3796 19.5667 52.6362 24.3459 52.5008C24.3459 52.5008 25.8375 50.6841 27 49.2133C24.2125 48.5129 21.7564 46.8625 20.0542 44.5466C20.0834 44.5675 20.4959 44.8466 21.1625 45.2133C21.2073 45.2658 21.2627 45.3087 21.325 45.3383C21.3778 45.375 21.4336 45.4071 21.4917 45.4341C21.5576 45.4641 21.6204 45.5004 21.6792 45.5425C22.6088 46.055 23.5738 46.5004 24.5667 46.8758C26.4545 47.6233 28.4072 48.195 30.4 48.5841C32.145 48.9129 33.9162 49.0804 35.6917 49.0841C37.3562 49.0841 39.0175 48.9304 40.6542 48.6258C42.6254 48.2796 44.5504 47.7091 46.3917 46.9258C47.9825 46.3141 49.5 45.5271 50.9167 44.58ZM42.425 42.8008C40.6121 42.9587 38.8883 41.9879 38.0837 40.3558C37.2796 38.7237 37.5592 36.765 38.7887 35.4233C40.0183 34.0821 41.9454 33.6329 43.6412 34.2925C45.3371 34.952 46.4542 36.5854 46.4542 38.405C46.5458 40.7295 44.745 42.6929 42.4208 42.8008H42.425ZM27.975 42.8008C25.6952 42.6021 23.9457 40.6933 23.9457 38.405C23.9457 36.1166 25.6952 34.2079 27.975 34.0091C29.0252 34.0125 30.0292 34.4408 30.7583 35.1966C31.5858 36.0554 32.0358 37.2087 32.0083 38.4008C32.105 40.7295 30.2992 42.6971 27.9709 42.8008H27.975Z" fill="#DFDCDC"/>
</svg>
