<svg width="88" height="71" viewBox="0 0 88 71" fill="none" xmlns="http://www.w3.org/2000/svg">
<path d="M77.3125 11.1633C81.0475 8.93039 83.8425 5.41435 85.175 1.27168C81.6654 3.35418 77.825 4.82118 73.8208 5.60918C68.2691 -0.263612 59.4729 -1.69282 52.3475 2.12022C45.2221 5.93326 41.5312 14.0446 43.3375 21.9217C28.9609 21.1999 15.5666 14.4088 6.48756 3.23835C1.7494 11.4109 4.17069 21.8583 12.0209 27.1134C9.18219 27.0221 6.4064 26.2534 3.92506 24.8717C3.92506 24.9467 3.92506 25.0217 3.92506 25.0967C3.92669 33.6096 9.92661 40.943 18.2709 42.6301C15.6378 43.3463 12.8759 43.4517 10.1959 42.9384C12.5426 50.2188 19.2524 55.2063 26.9001 55.3551C20.566 60.3263 12.7437 63.0226 4.69173 63.0092C3.26452 63.0113 1.83844 62.9292 0.420898 62.7634C8.59752 68.0176 18.1141 70.8063 27.8334 70.7967C41.3554 70.8896 54.35 65.5588 63.9112 55.9967C73.4725 46.4346 78.8025 33.4392 78.7083 19.9175C78.7083 19.1425 78.6904 18.3717 78.6541 17.605C82.1562 15.0742 85.1783 11.939 87.5791 8.34668C84.3166 9.79276 80.8562 10.7422 77.3125 11.1633Z" fill="#DFDCDC"/>
</svg>
